<?xml version="1.0" encoding="utf-8"?>
<!-- Generator: Adobe Illustrator 22.0.1, SVG Export Plug-In . SVG Version: 6.00 Build 0)  -->
<svg version="1.1" id="Calque_1" xmlns="http://www.w3.org/2000/svg" xmlns:xlink="http://www.w3.org/1999/xlink" x="0px" y="0px"
	 viewBox="0 0 633.5 633.9" style="enable-background:new 0 0 633.5 633.9;" xml:space="preserve">
<g>
	<path d="M618.2,15.9c0,200,0,400,0,600c-200,0-400,0-600,0c0-200,0-400,0-600C218.2,15.9,418.2,15.9,618.2,15.9z M602.9,600.7
		c0-190.1,0-379.8,0-569.4c-190.1,0-379.8,0-569.4,0c0,190,0,379.6,0,569.4C223.3,600.7,412.9,600.7,602.9,600.7z"/>
	<path class="st0" d="M618.2,15.9c-200,0-400,0-600,0c0.2-0.3,0.3-0.9,0.5-1c1.3-0.1,2.7,0,4,0c197,0,394,0,591,0
		C615.2,15,616.7,15.6,618.2,15.9z"/>
	<path d="M374.7,510.8c15.5-8.9,30.4-17.6,45.5-26.3c3.5,4.6,6.6,9.1,10.1,13.3c15.5,18.3,40.6,25.5,62.9,18.2
		c15.7-5.1,23.4-17.3,20-32c-1.8-7.6-6.6-13.3-13.2-16.8c-10.1-5.5-20.6-10.1-30.8-15.2c-14.7-7.4-30-13.8-43.7-22.7
		c-39.5-25.6-40.5-75.1-25.3-102.2c13-23.2,33.9-34.5,59.5-38c18.2-2.5,36.3-1,53.5,6c18.2,7.4,30.9,20.9,40.8,38.3
		c-14.6,9.4-28.9,18.6-43.7,28.1c-1.5-2.2-2.8-4.2-4.2-6.2c-9.1-13.8-21.7-19.7-38.1-17.2c-9.4,1.4-16.6,6.3-19.6,15.6
		c-3.1,9.5-1.8,18.8,5.7,25.8c4.5,4.2,10.1,7.7,15.7,10.5c12.6,6.1,25.6,11.1,38.1,17.3c9.8,4.8,19.5,10.2,28.6,16.3
		c19.1,12.8,30.8,30.7,33.2,53.8c2.7,25.7-2.1,49.2-21.9,67.6c-11.8,10.9-25.9,17.5-41.5,20.5c-33.3,6.5-65.3,3.7-94.9-14.1
		c-14.7-8.8-26.1-21.1-34.5-36C376.2,514,375.6,512.6,374.7,510.8z"/>
	<path d="M221.7,489.7c2.6,4.1,5.1,8.4,8,12.4c9.9,14,22.5,18.7,39.2,14.7c10.6-2.5,17.3-11.4,18.3-24.6c0.4-4.8,0.6-9.6,0.6-14.5
		c0-60.1,0.1-120.3-0.1-180.4c0-5.1,1.3-6.5,6.4-6.4c16.5,0.3,32.9,0.1,50,0.1c0.1,2.1,0.3,3.9,0.3,5.6c0,62.3,0,124.6,0,186.9
		c0,12.4-1.5,24.5-5.7,36.3c-7.9,22.5-23.4,37.3-46.2,43.9c-24.3,7.1-48.7,6.7-72.4-3c-19.5-8-33.3-22.2-42.9-40.7
		c-1-2-1.5-3.4,0.9-4.9c14.2-8.4,28.2-16.9,42.4-25.4C220.7,489.7,221.1,489.8,221.7,489.7z"/>
</g>
</svg>
