<?xml version="1.0" encoding="utf-8"?>
<!-- Generator: Adobe Illustrator 22.0.1, SVG Export Plug-In . SVG Version: 6.00 Build 0)  -->
<svg version="1.1" id="Calque_1" xmlns="http://www.w3.org/2000/svg" xmlns:xlink="http://www.w3.org/1999/xlink" x="0px" y="0px"
	 viewBox="0 0 780.7 773.9" style="enable-background:new 0 0 780.7 773.9;" xml:space="preserve">
<g>
	<path d="M366,9.5c16.5,0,33,0,49.5,0c-0.3,0.2-0.5,0.4-1,0.8c95,7.4,176.9,43.5,244.2,110.8c67.4,67.4,103.6,149.3,111,244.3
		c0.4-0.4,0.6-0.7,0.8-0.9c0,16.5,0,33,0,49.5c-1.1,0.2-1.1,0.2-1.3,2c-0.8,7.5-1.5,15-2.4,22.5c-1.1,8.1-2.2,16.3-3.8,24.4
		c-1.9,9.6-3.8,19.3-6.6,28.6c-4,13.2-8.4,26.3-13.3,39.1c-4,10.3-8.6,20.3-13.6,30.1c-5,9.9-10.6,19.5-16.5,28.9
		c-6.4,10.1-13.4,20-20.4,29.7c-9,12.4-19.1,23.9-29.8,34.7c-8.8,8.8-17.8,17.4-27.3,25.4c-9.9,8.2-20.3,15.8-30.8,23.2
		c-6.7,4.8-13.8,9.2-20.9,13.4c-8.2,4.8-16.5,9.4-25,13.7c-7.2,3.7-14.6,7.2-22.1,10.2c-9.5,3.8-19.2,7.4-28.9,10.6
		c-8.9,2.9-18,5.4-27.1,7.6c-8.4,2-16.9,3.6-25.4,5.2c-7.3,1.3-14.7,2.4-22.1,3.4c-5.5,0.7-11.1,1.1-16.6,1.6c-17.3,0-34.7,0-52,0
		c-8.1-0.9-16.2-1.7-24.2-2.8c-9.1-1.2-18.3-2.4-27.3-4.2c-8.9-1.8-17.8-4.1-26.5-6.8c-12.5-3.9-25-7.9-37.2-12.6
		c-10.1-3.9-20-8.5-29.7-13.4c-8.5-4.2-16.8-9-24.9-13.9c-6.2-3.7-12.1-7.9-18.1-11.9c-4.8-3.2-9.7-6.4-14.2-10
		c-7.2-5.6-14.3-11.4-21.2-17.4c-5.8-5-11.4-10.1-16.8-15.5c-5.7-5.6-11.1-11.4-16.5-17.3c-3.3-3.6-6.6-7.2-9.6-11.1
		c-5.5-7.1-11-14.2-16.2-21.5c-5.7-8-11.4-16.1-16.5-24.5C59.9,576.6,55,567,50,557.5c-1.8-3.4-3.5-6.8-5-10.3
		c-2.8-6.5-5.4-13-8.1-19.5c-1.8-4.5-3.8-8.9-5.2-13.5c-3.2-10.5-6.3-21-9.2-31.5c-1.8-6.5-3.1-13.1-4.4-19.7
		c-1-5.2-1.9-10.5-2.6-15.7c-1.1-7.5-2.1-15-3-22.5c-0.4-3.7-0.6-7.4-0.9-11.5c-0.6,0.7-0.8,0.9-1,1.1c0-16.5,0-33,0-49.5
		c1.8,0.4,1.1-1.2,1.2-1.8c0.9-7.8,1.6-15.5,2.6-23.3c1-7.9,2.1-15.8,3.7-23.6c1.9-9.7,3.8-19.4,6.6-28.9
		c3.9-13.2,8.4-26.2,13.3-39.1c3.9-10.3,8.7-20.3,13.6-30.1c4.1-8.3,8.8-16.3,13.5-24.3c3.2-5.5,6.7-10.9,10.3-16.1
		c4.1-5.9,8.2-11.8,12.7-17.5c5.4-7,11-13.7,16.6-20.5c2.8-3.4,5.7-6.7,8.8-9.8c5.3-5.5,10.8-10.8,16.3-16.1
		c6-5.7,12-11.5,18.5-16.6c9.3-7.4,18.9-14.6,28.7-21.4c9.4-6.5,19.1-12.7,29-18.3c9.4-5.3,19.3-9.8,29.1-14.5
		c4.8-2.3,9.6-4.5,14.6-6.3c7.7-2.9,15.6-5.7,23.4-8.3c7.3-2.4,14.6-4.6,22-6.5c7.6-2,15.4-3.6,23.1-5.2c6.8-1.3,13.6-2.5,20.4-3.4
		c8.7-1.1,17.4-1.8,26-2.7c0.6-0.1,1.1-0.2,1.7-0.3C366.1,10.1,366.1,9.8,366,9.5z M391,26.6C192.2,26.9,29,186.8,28,387.9
		C27,587.3,187.7,751.4,389.8,752c197.8,0.6,363.2-159.2,363.2-362.9C753.1,191.8,593.7,27.8,391,26.6z"/>
	<path d="M309.6,588.9c-1.4-3.8-2.6-6.8-3.7-9.9c-2.8-8.1-5.7-16.3-8.4-24.5c-2.7-8.1-5.1-16.3-7.8-24.4c-1.7-5-3.7-10-5.4-15
		c-1.1-3.2-1.9-6.5-3-9.7c-2.6-7.6-5.3-15.2-7.9-22.8c-1.8-5.3-3.4-10.7-5.2-16.1c-3.5-10.4-7.2-20.7-10.7-31.1
		c-2.7-8.2-5.2-16.5-7.9-24.7c-1.5-4.6-3.2-9.1-4.8-13.6c-2-5.7-3.9-11.4-5.9-17.2c-2.8-8.1-5.6-16.1-8.3-24.2
		c-3.4-10.1-6.6-20.3-10-30.5c-3-9-6.3-18-9.3-27c-3.8-11.2-7.4-22.5-11.2-33.8c-2.7-7.9-5.5-15.8-8.2-23.8
		c-0.4-1.1-0.5-2.4-0.8-3.8c6-0.5,11.7-0.9,17.4-1.4c6.8-0.7,13.6-1.2,20.3-2.3c7.6-1.3,11.9-7.3,11-14.8
		c-0.8-6.4-3.9-10.2-10.8-11.5c-5.5-1.1-10.7,0.3-16.1,0.5c-17.8,0.7-35.6,1.9-53.4,2.6c-12.4,0.4-24.8,0.2-37.2,0.3
		c-1.1,0-2.2-0.3-3.8-0.5c26.6-39.8,59.8-72.2,100.1-97.1c40.4-25,84.1-40.1,131.3-46.2c47.3-6.1,93.4-1.3,138.7,12.7
		c45.2,14,85.3,37.3,120.4,69.2c-4,0.5-7.8,1-11.5,1.4c-5.9,0.6-11.1,2.8-16.3,5.6c-12.3,6.7-20.7,16.7-25.6,29.6
		c-4.1,10.6-5.3,21.6-3.2,32.9c2.5,13.8,8.1,26.4,15.2,38.4c3.4,5.9,6.8,11.7,10.3,17.6c4,6.9,8.5,13.6,11.9,20.7
		c5,10.5,10,21.2,13.6,32.2c3.1,9.2,5.1,19,6.1,28.7c1.2,11.9,1.6,24-0.5,35.9c-1.4,7.6-3,15.2-4.8,22.6c-2.2,9.1-4.8,18.1-7.3,27.1
		c-1.9,6.5-4,13-6,19.5c-2.5,8-4.9,16-7.4,24c-2,6.6-4,13.1-6,19.7c-3,10.1-5.8,20.2-8.8,30.3c-1.4,4.8-3.1,9.5-4.5,14.2
		c-2.3,7.5-4.4,15.1-6.6,22.7c-1.2,4.1-2.4,8.1-3.7,12.1c-0.1,0.4-0.6,0.7-1.2,1.6c-1.1-3.2-1.9-6-2.9-8.7
		c-1.9-5.4-3.8-10.8-5.6-16.3c-2.3-6.9-4.4-13.9-6.7-20.8c-2-6-4.1-12-6.2-17.9c-1.9-5.5-3.7-11-5.6-16.5
		c-2.8-8.2-5.6-16.3-8.3-24.5c-2.7-8-5.1-16.1-7.8-24.1c-1.7-5.1-3.7-10.1-5.4-15.2c-2.3-6.9-4.5-13.9-6.8-20.8
		c-1.7-5-3.5-9.9-5.2-14.8c-2.3-6.7-4.5-13.4-6.8-20c-2.7-8.1-5.5-16.1-8.2-24.2c-2.7-8-5.1-16.1-7.8-24.1
		c-1.7-5.1-3.6-10.1-5.4-15.2c-1.8-5.2-3.4-10.4-5.2-15.5c-2.3-6.8-4.7-13.6-7-20.4c-2.3-6.8-4.4-13.6-6.7-20.3
		c-2.1-6.3-4.3-12.6-6.4-18.8c-1.1-3.2-2-6.4-3.1-10c3.6-0.4,6.9-0.8,10.2-1.1c7.5-0.6,15.1-1.1,22.7-1.8c4.7-0.4,9.3-1.5,12.7-5
		c1.2-1.2,2.3-2.8,2.6-4.4c1.4-7.8,0.8-13.6-7.4-17.2c-2.4-1-5.4-1.4-8-1.2c-16.8,0.9-33.6,2.4-50.4,3.1c-16.6,0.7-33.3,1.1-50,0.7
		c-21.6-0.6-43.3-2.1-64.9-3.2c-2.9-0.1-6-0.4-8.9,0c-10,1.4-14.1,13.7-8.5,21.1c1.8,2.4,4.3,4.6,7.8,4.9c8.6,0.9,17.1,1.9,25.7,2.8
		c2.9,0.3,5.8,0.4,8.7,0.9c0.9,0.1,2.1,0.9,2.4,1.7c1.9,4.7,3.5,9.5,5.2,14.2c3.5,9.8,7,19.7,10.6,29.5c3.1,8.4,6.4,16.7,9.5,25.1
		c3.5,9.5,6.7,19.1,10.2,28.6c3.4,9.3,7,18.4,10.5,27.7c1.4,3.6,2.8,7.3,3.7,11.1c0.4,1.6-0.5,3.5-1,5.2c-2.6,7.9-5.4,15.7-8,23.5
		c-2.5,7.4-4.9,14.8-7.4,22.1c-3.6,10.8-7.2,21.6-10.9,32.5c-2.9,8.6-5.8,17.2-8.6,25.9c-2.4,7.2-4.8,14.5-7.1,21.7
		c-2.3,7-4.4,14-6.7,21c-1.5,4.7-3.3,9.4-4.9,14.1c-2.3,6.7-4.5,13.5-6.7,20.3C315.9,570.1,312.9,579.2,309.6,588.9z"/>
	<path d="M298.5,702.1c1.4-3.9,2.7-7.6,4-11.4c2.8-8.3,5.5-16.7,8.3-25c2-6,4.2-11.9,6.3-17.9c2.4-6.9,4.6-13.8,7-20.7
		c2.1-6,4.3-12,6.4-18.1c2.4-6.9,4.6-13.8,7-20.7c1.7-4.8,3.6-9.5,5.2-14.3c2.8-8.2,5.4-16.4,8.2-24.5c1.6-4.8,3.6-9.5,5.2-14.3
		c2.8-8.2,5.4-16.4,8.1-24.6c1.5-4.5,3.3-9,4.9-13.5c2.2-6.3,4.4-12.5,6.6-18.8c3-8.6,5.9-17.2,8.9-25.9
		c3.6-10.4,7.2-20.8,10.8-31.3c0.2-0.5,0.4-0.9,1-2.1c0.9,2.4,1.6,4.1,2.3,5.9c1.4,3.6,2.7,7.3,4.1,10.9c2.3,6.1,4.6,12.3,6.8,18.4
		c2.2,6.1,4.5,12.3,6.7,18.5c2.7,7.6,5.4,15.3,8.2,22.9c1.7,4.8,3.7,9.4,5.5,14.2c2.3,6.2,4.4,12.5,6.6,18.7
		c2.1,5.8,4.4,11.6,6.5,17.5c2.7,7.5,5.3,15.1,8,22.7c1.6,4.5,3.4,9,5.1,13.5c2.4,6.4,4.7,12.9,7,19.4c2.2,5.9,4.5,11.8,6.6,17.7
		c3.1,8.6,6.1,17.3,9.2,26c1.2,3.4,2.6,6.8,3.9,10.2c2.4,6.5,4.6,12.9,7,19.4c2.5,6.8,5,13.5,7.7,20.2c0.6,1.5,0.1,2-1.1,2.3
		c-10.3,2.9-20.6,5.9-30.9,8.6c-6.1,1.6-12.3,2.8-18.5,4c-3.8,0.7-7.6,1.1-11.3,1.7c-14.5,2.4-29.2,3.2-43.8,3.4
		c-13.3,0.2-26.6-0.4-39.8-2.7c-7.3-1.3-14.7-1.8-22-3c-6-1-11.9-2.6-17.8-3.9c-4.2-1-8.4-2.1-12.5-3.2
		C299.5,702.4,299.1,702.2,298.5,702.1z"/>
	<path d="M247.1,682c-62-30.8-109.4-76.4-142.5-136.3C81,503.1,68.5,457.1,65.4,408.5c-2.3-36.2,2-71.7,11.3-106.7
		c4-14.9,9.4-29.3,15.4-43.4c0.2,0,0.5-0.1,0.7-0.1c1.1,2.7,2.4,5.4,3.4,8.1c2.3,6.2,4.5,12.5,6.7,18.7c2.7,7.7,5.4,15.5,8.2,23.2
		c1.7,4.6,3.5,9.1,5.2,13.7c2.3,6.4,4.5,12.8,6.9,19.2c2.1,5.8,4.4,11.5,6.5,17.2c2.7,7.5,5.4,15.1,8.1,22.7
		c1.7,4.8,3.6,9.5,5.3,14.2c2.3,6.4,4.5,12.8,6.9,19.2c2.1,5.8,4.4,11.5,6.5,17.2c2.7,7.4,5.3,14.8,8,22.2c1.8,4.8,3.6,9.6,5.4,14.5
		c2.3,6.4,4.5,12.8,6.9,19.2c2.1,5.8,4.4,11.4,6.5,17.2c2.8,7.6,5.3,15.3,8.1,22.9c1.6,4.5,3.5,9,5.1,13.5c2.4,6.5,4.6,13.1,7,19.6
		c2.1,5.7,4.3,11.3,6.4,17c2.8,7.6,5.4,15.3,8.2,22.9c1.7,4.6,3.5,9.1,5.2,13.7c2.8,7.6,5.4,15.3,8.2,22.9c1.6,4.5,3.5,9,5.1,13.5
		c2.4,6.5,4.6,12.9,7,19.4c1.2,3.2,2.3,6.4,3.5,9.6C247.1,680.4,247,680.9,247.1,682z"/>
	<path d="M555.3,669.3c1.4-4.4,2.9-8.8,4.3-13.2c1.9-5.7,3.9-11.5,5.9-17.2c1.3-3.8,2.8-7.6,4.2-11.5c2.3-6.6,4.5-13.3,6.8-20
		c1.7-5,3.6-10,5.3-15c2.7-7.8,5.3-15.7,8-23.5c1.8-5.2,3.7-10.3,5.5-15.4c1.8-5.2,3.5-10.4,5.3-15.5c2.8-7.9,5.7-15.7,8.4-23.7
		c3.1-9.2,6-18.4,9.1-27.6c1.6-4.7,3.5-9.3,5.1-14c2.8-8.1,5.4-16.2,8.2-24.3c1.6-4.8,3.5-9.5,5.2-14.3c2.3-6.5,4.5-13,6.7-19.5
		c2.2-6.4,4.5-12.8,6.7-19.2c2.1-6,4.2-12.1,6.4-18.1c2.2-6.3,4.5-12.6,6.6-19c2-5.9,4-11.8,5.5-17.8c2.3-8.8,4.5-17.7,6.1-26.7
		c2.4-13.9,3.9-28,4-42.2c0-8.9-0.7-17.8-1-26.7c-0.1-2.9-0.3-5.8,0.1-8.7c37.4,71.7,47.7,147.1,30.2,226
		c-9,40.7-25.7,78.1-49.5,112.4c-19.8,28.5-43.5,53.3-71.2,74.3c-10,7.6-20.3,14.7-31.2,20.8C555.8,669.7,555.6,669.5,555.3,669.3z"
		/>
</g>
</svg>
