<?xml version="1.0" encoding="utf-8"?>
<!-- Generator: Adobe Illustrator 22.0.1, SVG Export Plug-In . SVG Version: 6.00 Build 0)  -->
<svg version="1.1" id="Calque_1" xmlns="http://www.w3.org/2000/svg" xmlns:xlink="http://www.w3.org/1999/xlink" x="0px" y="0px"
	 viewBox="0 0 2814 1559.9" style="enable-background:new 0 0 2814 1559.9;" xml:space="preserve">
<g>
	<path d="M1366.9,1409.3c-39.1,0.1-104.7-2.2-170.1-7.5c-170.9-13.7-338.6-43.7-501.7-97.6c-100.2-33.1-196.7-74.6-286.9-129.7
		c-64.6-39.4-124.4-84.9-175.7-140.8c-39.3-42.8-72-90-93.3-144.4c-39.1-100-32.3-197.6,16.5-292.7c29.7-58,71.2-106.8,119.2-150.4
		c62.3-56.7,132.5-101.7,207.2-140.1c103.5-53.2,212.5-91.9,324.9-121.5c88.4-23.2,177.9-40.6,268.6-51.7
		c52.2-6.4,104.7-10.9,157.2-15c71.5-5.5,143.1-6.6,214.8-5c77.7,1.7,155.1,6.7,232.3,15.7c145.3,17,287.9,46.3,426.6,93.5
		c101.9,34.6,199.7,78,290.7,135.9c61,38.9,117.3,83.4,165.4,137.7c39.7,44.8,72.1,94.2,91.8,151.1c34.6,100.1,23.3,196.2-27,288.4
		c-29.9,54.7-70.2,101.2-116.3,142.7c-65.3,58.9-139.1,105.2-217.5,144.4c-101,50.5-207.1,87.6-316.2,116
		c-74.2,19.3-149.2,34.7-225,45.2c-49.4,6.9-99.2,12-148.9,16.9C1533.4,1407.3,1463.5,1409.2,1366.9,1409.3z M1797.8,451
		c-45.5,234.1-90.8,467.3-136.3,701.4c51.6,0,101.7,0,152.9,0c12.1-62,24.2-123.9,36.3-186c4.9,0,8.6,0,12.2,0c40.7,0,81.3,0,122,0
		c28.4,0,56.5-2,84.7-5.7c74.3-9.6,134.5-44.4,182.9-100.7c58.1-67.5,80.5-147,75.3-234.5c-2.8-47.3-21.7-88.3-57.8-120.2
		c-20.5-18.2-44.3-30.5-70.2-39c-35.9-11.7-73-15.1-110.4-15.2c-93.3-0.2-186.6-0.1-280-0.1C1806,451,1802.7,451,1797.8,451z
		 M603.9,451c-45.5,234-90.8,467.2-136.3,701.2c51.6,0,102.1,0,152.9,0c12.2-62.2,24.2-123.9,36.3-185.8c4.7,0,8.4,0,12,0
		c36,0,72-0.1,108,0c29.3,0.1,58.6-0.5,87.8-4.2c29.2-3.7,57.8-9.6,85-21.1c53.8-22.7,96-59.7,129-107.1
		c44-63.2,60.5-134.3,55.2-210.4c-2.9-41-18.1-77.6-46.8-107.9c-22.5-23.8-50.1-39.4-81-49.5c-36.2-11.9-73.6-15.2-111.4-15.2
		c-93-0.1-186,0-279,0C612,451,608.4,451,603.9,451z M1240.5,264.9c-45.4,233.7-90.8,467.2-136.3,701c51.4,0,101.3,0,151.7,0
		c26-133.9,52-267.5,77.9-400.5c1.6-0.6,2.2-1,2.8-1c45.7,0.1,91.3-0.1,137,0.5c14.6,0.2,29.2,2.7,42.9,8.6
		c13.2,5.7,21.4,15.3,24.4,29.5c3.4,16.3,2.1,32.6-1,48.6c-16,83-32.2,166-48.4,249c-4.2,21.5-8.3,43.1-12.6,65.2
		c51.6,0,102.4,0,153.9,0c1.9-9.3,3.8-18.4,5.5-27.5c18.4-94.8,36.8-189.6,55.3-284.4c5.6-28.8,10.4-57.7,7.1-87.3
		c-4.7-42.1-25.1-72.9-63.9-91.1c-18.2-8.6-37.4-13.8-57.1-17.5c-29.6-5.5-59.5-6.9-89.5-7.1c-41-0.3-82-0.1-123-0.1
		c-3.5,0-6.9-0.4-11-0.6c12.1-62.6,24-123.8,36-185.5C1340.9,264.9,1291,264.9,1240.5,264.9z"/>
	<path d="M1872.1,855.1c19-97.7,37.9-194.9,56.9-292.6c3.5-0.2,6.5-0.5,9.4-0.5c33.7,0,67.3,0,101,0c23.1,0,45.9,2,68.2,8.2
		c40.4,11.3,59.3,33.9,61,76c1.9,46.1-8.1,90-29.5,131.1c-20.7,39.8-55,61.2-97.7,70.9c-20.2,4.6-40.7,7-61.4,7.3
		c-33.6,0.5-67.3,0.3-101,0.3C1877.1,855.9,1875.2,855.5,1872.1,855.1z"/>
	<path d="M678.2,855.3c19-97.9,37.9-194.9,56.9-292.6c3.1-0.2,6-0.6,8.8-0.6c34.3,0,68.7-0.1,103,0c22.4,0.1,44.6,2.1,66.3,8.1
		c2.6,0.7,5.1,1.4,7.7,2.3c34.4,11.8,51.7,33.8,53.7,70.3c2.6,46.2-7.2,90.1-27.6,131.5c-20.6,41.6-55.5,64.2-99.8,74.1
		c-19.9,4.4-40.1,6.9-60.4,7.2c-34.3,0.6-68.6,0.3-103,0.3C682.4,855.9,681.1,855.6,678.2,855.3z"/>
</g>
</svg>
