<?xml version="1.0" encoding="utf-8"?>
<!-- Generator: Adobe Illustrator 22.0.1, SVG Export Plug-In . SVG Version: 6.00 Build 0)  -->
<svg version="1.1" id="Calque_1" xmlns="http://www.w3.org/2000/svg" xmlns:xlink="http://www.w3.org/1999/xlink" x="0px" y="0px"
	 viewBox="0 0 1356.5 384.8" style="enable-background:new 0 0 1356.5 384.8;" xml:space="preserve">
<g>
	<path d="M334.8,371.8c-6.1-2.7-10-7.6-13.2-13.1c-17.9-31.6-35.8-63.1-53.7-94.7c-0.9-1.6-1.8-3.1-2.9-5
		c-14.6,3.8-29,7.6-43.5,11.3c-20.8,5.4-41.6,10.7-62.4,16c-1,0.2-1.9,0.5-2.9,0.7c-14.1,3.3-22.4-0.7-28.3-13.6
		c-19.7-42.6-39.4-85.2-59.1-127.8C54,113.3,39.2,81.1,24.5,48.9C22,43.6,20,38.2,17.8,32.8c0-1.7,0-3.3,0-5
		c2.7-4.6,7.1-5.4,11.9-5.8c22.5-1.8,45-3.5,67.5-5.4c10.2-0.8,20.4-1.9,30.6-2.8c4,0,8,0,12,0c6,2.4,8.8,7.8,11.9,12.9
		c32.7,54.7,65.5,109.5,98.2,164.2c7.9,13.3,16,26.5,23.8,39.9c1.4,2.4,2.7,3,5.5,2.3c50.6-12.2,101.3-24.3,152-36.4
		c0.6-0.1,1.2-0.5,2.2-0.9c-1.1-1.7-2-3.2-3-4.6c-15.8-22.5-31.7-44.9-47.5-67.4c-4.9-7-3.7-10.4,4.8-11.8
		c25.4-4.4,50.9-8.7,76.4-12.6c3.2-0.5,7,1.3,10.1,3c2.4,1.3,4.1,3.8,5.9,6c19.5,24.1,39,48.2,58.4,72.3c4,4.9,3.1,7.4-3.7,9.3
		c-22,6-44,11.8-66.1,17.7c-1.4,0.4-2.8,0.8-4.6,1.4c1.4,1.8,2.4,3.3,3.5,4.8c19.1,25.7,38.2,51.3,57.3,77c1.1,1.5,2.2,3,3.2,4.5
		c4.1,6,3.4,8.4-3.3,11.4c-3,1.4-6.2,2.5-9.3,3.6c-52.2,18.7-104.3,37.4-156.5,56.1c-5.3,1.9-10.6,3.6-16,5.4
		C340.2,371.8,337.5,371.8,334.8,371.8z M42.2,36.5c1.2,3,2,5.2,3,7.4c34.7,71.7,69.6,143.4,104.2,215.2c1.8,3.7,3.7,4.4,7.3,3.5
		c13.4-3.3,26.8-6.5,40.3-9.7c17.2-4.1,34.3-8.1,51.5-12.2c5.4-1.3,5.8-2.1,3-7.1c-0.7-1.3-1.5-2.6-2.3-3.9
		c-37.7-65.1-75.5-130.1-113-195.3c-2.7-4.8-5.6-5.9-10.7-5.3c-18.6,1.9-37.1,3.3-55.7,5C60.9,34.8,52,35.6,42.2,36.5z M287.2,253.1
		c0.8,1.5,1.3,2.8,1.9,3.9c14.5,24.9,29,49.7,43.5,74.6c2,3.4,4.1,6.9,6.4,10.1c1.7,2.5,4,3.5,7.3,2.4
		c50.5-17.3,101.1-34.4,151.7-51.6c5.1-1.7,5.3-2.6,2.1-7c-17.1-23.6-34.3-47.1-51.4-70.7c-1.7-2.3-3.3-3.1-6.3-2.3
		c-35.4,9.4-70.8,18.5-106.2,27.8C320,244.6,303.8,248.8,287.2,253.1z M402.9,125c0.8,1.8,1.2,2.9,1.8,3.8
		c14.8,20.3,29.6,40.7,44.5,60.9c0.8,1.1,3.4,1.8,4.9,1.4c18.8-4.4,37.5-9.1,56.3-13.8c1.9-0.5,3.7-1.5,5.8-2.4
		c-0.8-1.3-1.1-1.9-1.5-2.4c-14.6-18.6-29.3-37.2-43.8-55.8c-2.3-3-5-3.3-8.4-2.7c-12.8,2.4-25.5,4.7-38.3,7
		C417.3,122.3,410.4,123.6,402.9,125z"/>
	<path class="st0" d="M127.8,13.8c-10.2,1-20.4,2-30.6,2.8c-22.5,1.9-45,3.6-67.5,5.4c-4.7,0.4-9.2,1.2-11.9,5.8c0-4.7,0-9.3,0-14
		C54.5,13.8,91.2,13.8,127.8,13.8z"/>
	<path d="M1259.2,228c-28.6,0-56.7,0-84.8,0c-2.6,19.4,12.8,37.1,33.2,38.9c13.5,1.1,26.5-0.2,39.8-5.5c1.1,6.1,2.2,11.7,2.8,17.4
		c0.1,1-2.4,2.7-4,3.3c-14.7,5.1-29.9,6.3-45.3,4.4c-14.3-1.8-26.9-7.5-36.4-18.7c-7.5-8.7-11.3-19.1-13.1-30.3
		c-2.6-16.9-1.7-33.5,5.6-49.3c14.9-32.4,58.6-43.1,84.7-20.7c2,1.7,3.9,3.7,5.5,5.8C1259.1,189.6,1259.7,208.4,1259.2,228z
		 M1235.4,209.5c2.1-18-10.2-33.5-26.9-34.2c-18.4-0.8-34,14.9-33.7,34.2C1195,209.5,1215.2,209.5,1235.4,209.5z"/>
	<path d="M985.4,211.3c-0.7-6.5-0.9-12.2-2.1-17.6c-2.4-10.7-10.6-17.8-21.9-17.7c-12,0.1-24.1,1.6-36.7,2.5
		c-0.5-3.8-1.4-9-1.9-14.3c-0.1-1.1,0.9-3.1,1.7-3.3c20.1-5.4,40.2-8.2,60.2,0.1c12.7,5.3,18.7,16,20.9,29c0.6,3.6,1.1,7.3,1.1,10.9
		c0.1,26.1,0.1,52.3,0,78.5c0,0.8-0.1,1.6-0.3,3.5c-13.7,1.3-27.3,3.3-41.1,3.7c-10,0.3-20.4-0.5-30.1-2.9
		c-16.8-4.1-25-15.9-26-34.1c-1-16.8,6.8-29.5,22.3-35.8c15.4-6.3,31.4-6.6,47.6-3.6C980.9,210.4,982.5,210.7,985.4,211.3z
		 M984.8,266.8c0-12.3,0.1-23.7-0.1-35.2c0-1.2-2-3-3.3-3.3c-11.4-2.3-22.8-2.8-34.1,0.4c-10.3,2.9-15.6,9.9-15.3,19
		c0.4,10.8,5.4,17.7,16.8,18.9C960.5,267.8,972.3,266.8,984.8,266.8z"/>
	<path d="M788.6,282.4c-22.8,2.9-45.2,7.4-67.8,2.4c-19-4.2-28.2-15.9-29.4-36.3c-1-16.7,7.9-29.7,24.7-35.8
		c14.8-5.4,30-5.6,45.3-2.6c1.1,0.2,2.3,0.5,3.4,0.6c0.5,0.1,1,0,2.6,0c-0.8-6.2-0.9-12.4-2.4-18.3c-2.7-10.5-11.1-16.5-22.7-16.8
		c-6-0.2-12,0-17.9,0.7c-5.7,0.7-11.4,2.1-17.4,3.3c-0.7-5-1.4-9.9-2.2-14.8c-0.4-2.6,0.3-4,3-4.7c15.6-4,31.5-5.9,47.5-3
		c20.6,3.8,32.1,16,33,38.5C789.5,224.4,788.6,253.1,788.6,282.4z M766.8,266.5c0-12,0.1-23.3-0.1-34.6c0-1.2-1.8-3.2-3-3.5
		c-11.9-2.5-23.8-3-35.5,0.6c-9.6,3-14.6,10.2-14.1,18.9c0.7,10.7,5.3,16.5,16,18.7C742.1,269.1,754.2,268.1,766.8,266.5z"/>
	<path d="M1024.7,159.5c8.3,0,15.9,0,24,0c8.6,33.1,19.4,65.5,32.8,98.2c2.7-6.9,5.3-12.6,7.3-18.5c8.2-25.3,16.4-50.6,24.3-76
		c0.9-2.8,1.9-4.1,5-4c6.1,0.2,12.3,0.1,19.1,0.1c-0.5,2.1-0.7,3.7-1.2,5.2c-10.7,40.1-26.4,78.4-43.2,116.3
		c-1.2,2.8-2.9,3.5-5.7,3.5c-16.5,0.2-16.6,0.2-23-14.6c-15.1-34.8-29-70-38.7-106.8C1025.2,162,1025,161.1,1024.7,159.5z"/>
	<path d="M1332,268c-1.1,6.4-2.1,12.4-3.3,19.8c-7.7-1.8-15.4-2.7-22.3-5.5c-12.1-5-15.2-16.1-15.5-27.9c-0.3-14.3-0.1-28.6-0.1-43
		c0-34.6,0-69.3,0-103.9c0-1.8,0-3.6,0-5.8c7.4-1.3,14.6-2.5,22.5-3.9c0,2.4,0,4.3,0,6.2c0,47.3,0,94.6,0,141.9c0,2,0,4,0.2,6
		c0.9,9.8,3.8,13.1,13.5,15.1C1328.4,267.2,1329.9,267.5,1332,268z"/>
	<path d="M656.8,97.7c0,2.3,0,4.3,0,6.2c0,47,0,93.9,0,140.9c0,1.8,0,3.7,0.1,5.5c0.5,10.7,3.8,14.5,14.2,16.6
		c1.3,0.3,2.6,0.6,4.4,1.1c-1,6.1-2,12.1-2.9,18c-19.2,4-36.4-8.6-37.8-27.8c-0.3-3.8-0.4-7.6-0.4-11.5c0-46.6,0-93.3-0.1-139.9
		c0-4.2,1.2-5.8,5.4-6.3C645.2,100.1,650.8,98.8,656.8,97.7z"/>
	<path d="M897,160.2c-1.3,6.6-2.6,12.9-3.9,19.6c-13.8-4-27.2-4.7-40.8-1.4c-3.5,0.8-4.4,2.3-4.4,5.7c0.1,31.3,0.1,62.6,0.1,93.9
		c0,1.8,0,3.6,0,5.9c-7.5,0-14.7,0-22.3,0c0-1.8,0-3.4,0-5c0-36.5,0.1-73-0.1-109.4c0-3.8,1-5.5,4.7-6.6c20.1-5.9,40.4-8.3,61.1-3.9
		C893.2,159.2,894.9,159.7,897,160.2z"/>
</g>
</svg>
