<?xml version="1.0" encoding="utf-8"?>
<!-- Generator: Adobe Illustrator 22.0.1, SVG Export Plug-In . SVG Version: 6.00 Build 0)  -->
<svg version="1.1" id="Calque_1" xmlns="http://www.w3.org/2000/svg" xmlns:xlink="http://www.w3.org/1999/xlink" x="0px" y="0px"
	 viewBox="0 0 224.8 240.9" style="enable-background:new 0 0 224.8 240.9;" xml:space="preserve">
<g>
	<path d="M113.9,233.9c-0.3,0-0.7,0-1,0c-1.2-0.8-2.4-1.7-3.7-2.4c-27.1-14.9-54.2-29.7-81.4-44.5c-2.6-1.4-4.5-2.9-4.9-6.2
		c-0.9-9.4-2-18.9-3.1-28.3c-2.8-24.3-5.7-48.6-8.5-72.9c-1.3-11-2.5-22.1-3.8-33.3c13.1-4.6,25.8-9,38.4-13.5
		c22.4-7.9,44.7-15.9,67-23.9c0.3,0,0.7,0,1,0c0.7,0.4,1.4,0.8,2.2,1.1c28.3,10,56.7,20,85,29.9c6,2.1,12.1,4.3,18,6.4
		c-0.1,2.2-0.1,3.9-0.3,5.6c-5,42.6-10,85.2-14.9,127.9c-0.4,3.5-1.8,5.6-4.9,7.3c-15.4,8.2-30.7,16.6-46,25
		C139.9,219.3,126.9,226.7,113.9,233.9z M85.2,148c18.9,0,37.5,0,56.3,0c3.9,9.7,7.8,19.4,11.8,29.1c0.6,1.4,1.9,3.4,2.9,3.5
		c7.5,0.3,15.1,0.2,23.4,0.2c-22.3-49.4-44.1-97.8-66.3-147.1C91,83.2,69.2,131.7,47,180.8c7.7,0,14.4-0.2,21,0.1
		c3.1,0.1,4.4-1,5.4-3.8C77.3,167.3,81.3,157.7,85.2,148z"/>
	<path d="M132.4,127c-13,0-25.2,0-38.1,0c6.4-15.2,12.5-29.8,19-45.3C119.9,97.2,126,111.9,132.4,127z"/>
</g>
</svg>
