<?xml version="1.0" encoding="utf-8"?>
<!-- Generator: Adobe Illustrator 22.0.1, SVG Export Plug-In . SVG Version: 6.00 Build 0)  -->
<svg version="1.1" id="Calque_1" xmlns="http://www.w3.org/2000/svg" xmlns:xlink="http://www.w3.org/1999/xlink" x="0px" y="0px"
	 viewBox="0 0 234.1 240.9" style="enable-background:new 0 0 234.1 240.9;" xml:space="preserve">
<g>
	<path d="M144.1,43.6c-3.6,0-5.6,1-7.4,4.2c-5.8,10.5-12,20.9-18.3,31.7c-6.5-11.2-12.6-21.8-18.7-32.5c-1.1-1.9-1.9-3.5-4.8-3.5
		c-21.8,0.1-43.6,0.1-66.3,0.1c30.1,52.2,59.9,103.7,89.8,155.6c30-51.9,59.8-103.5,89.8-155.6C186.4,43.7,165.2,43.8,144.1,43.6z
		 M118.5,190.5C91,142.9,63.8,95.7,36.2,48c8.4,0,16,0.1,23.6,0c3-0.1,3.3,2.3,4.3,4.1c17.7,30.6,35.3,61.2,53,91.8
		c0.3,0.6,0.7,1.1,1.4,2.1c6.6-11.4,13.1-22.6,19.6-33.9c11.6-20.1,23.3-40.2,34.8-60.4c1.5-2.6,3-3.9,6.1-3.7
		c7,0.3,14,0.1,21.8,0.1C173.1,95.9,145.9,143,118.5,190.5z"/>
</g>
</svg>
