<?xml version="1.0" encoding="utf-8"?>
<!-- Generator: Adobe Illustrator 22.0.1, SVG Export Plug-In . SVG Version: 6.00 Build 0)  -->
<svg version="1.1" id="Calque_1" xmlns="http://www.w3.org/2000/svg" xmlns:xlink="http://www.w3.org/1999/xlink" x="0px" y="0px"
	 viewBox="0 0 246.1 240.9" style="enable-background:new 0 0 246.1 240.9;" xml:space="preserve">
<g>
	<path d="M121,233.9c-14.9-4.3-29.9-8.6-44.8-12.9c-5.3-1.5-10.6-2.7-15.8-4.5c-1.4-0.5-3.1-2.5-3.2-4c-3.6-39-6.9-77.9-10.4-116.9
		c-1.2-13.9-2.6-27.8-3.9-42.1c53.1,0,105.8,0,159,0c-0.4,4.9-0.6,9.9-1.1,14.7c-2.9,33.2-5.9,66.3-8.9,99.5
		c-1.3,14.9-2.8,29.8-3.9,44.8c-0.2,3.2-2.1,3.7-4.4,4.3c-19.2,5.3-38.4,10.6-57.6,16c-0.7,0.2-1.4,0.7-2.1,1
		C123,233.9,122,233.9,121,233.9z M72.4,86.5c1.8,20.4,3.6,40.2,5.4,60.4c23.3,0,46.1,0,69,0c-0.5,5.3-0.7,10.1-1.3,14.8
		c-1.4,11-1.4,11.1-12.4,13.9c-4.3,1.1-8.8,2.5-13.1,2.1c-5.7-0.6-11.3-2.7-16.8-4.5c-1.4-0.5-2.9-2.4-3.2-3.9
		c-0.8-4-0.9-8.2-1.3-12.2c-6.8,0-13.2,0-19.9,0c0.8,9.7,1.5,19,2.5,28.2c0.2,1.3,2.2,3.1,3.7,3.5c11.5,3.4,23,6.6,34.5,9.7
		c1.8,0.5,4,0.5,5.8,0c11.4-3,22.7-6.5,34.1-9.4c3.5-0.9,4.3-2.6,4.5-5.9c0.7-10.1,1.8-20.2,2.7-30.3c0.7-8.6,1.4-17.1,2.2-26.3
		c-24.4,0-48.5,0-72.7,0c-0.6-6.9-1.1-13.3-1.7-20.5c25.8,0,51,0,76.3,0c0.6-6.9,1.1-13.2,1.6-19.8C139,86.5,106.1,86.5,72.4,86.5z"
		/>
	<path d="M158,8.9c0,9.8,0,19.6,0,29.8c-3.3,0-6.3,0-9.9,0c0-4.3,0-8.5,0-12.8c-0.3-0.1-0.6-0.2-0.9-0.3c-1.9,2.8-3.8,5.6-6.1,9.1
		c-2.2-3.2-4.2-6.1-6.8-9.8c0,5,0,9.2,0,13.8c-3.6,0-6.6,0-10.3,0c0-9.9,0-19.8,0-29.7c3.7,0,7.3,0,11,0c1.9,3.4,3.9,6.8,6.3,11.2
		c2.3-4.5,4-7.8,5.7-11.2C150.7,8.9,154.3,8.9,158,8.9z"/>
	<path d="M87,8.9c0,9.8,0,19.6,0,29.8c-3.3,0-6.3,0-9.9,0c0-3,0-6.1,0-9.4c-3.2,0-6,0-9.1,0c-0.2,3.2-0.4,6.2-0.5,9.5
		c-3.2,0-6.1,0-9.5,0c0-10,0-20,0-29.9c3.3,0,6.7,0,10,0c0,3.2,0,6.5,0,9.7c3.2,0,6,0,9,0c0-3.4,0-6.6,0-9.7
		C80.3,8.9,83.7,8.9,87,8.9z"/>
	<path d="M119,8.9c0.2,3.1,0.4,6.2,0.6,9.9c-3,0-5.6,0-8.8,0c0,6.9,0,13.2,0,19.9c-3.5,0-6.4,0-9.9,0c0-6.4,0-12.8,0-19.6
		c-3.1-0.1-5.7-0.3-8.8-0.4c0-3.3,0-6.6,0-9.8C101,8.9,110,8.9,119,8.9z"/>
	<path d="M173,8.9c0,6.6,0,13.2,0,20.3c5.1,0,9.5,0,14.2,0c0,3.5,0,6.4,0,9.5c-7.9,0-15.6,0-24.2,0c0-10.1,0-20,0-29.9
		C166.3,8.9,169.7,8.9,173,8.9z"/>
</g>
</svg>
