<?xml version="1.0" encoding="utf-8"?>
<!-- Generator: Adobe Illustrator 22.0.1, SVG Export Plug-In . SVG Version: 6.00 Build 0)  -->
<svg version="1.1" id="Calque_1" xmlns="http://www.w3.org/2000/svg" xmlns:xlink="http://www.w3.org/1999/xlink" x="0px" y="0px"
	 viewBox="0 0 447.1 335.9" style="enable-background:new 0 0 447.1 335.9;" xml:space="preserve">
<g>
	<path d="M221,7.9c8.1,1.7,16.4,2.9,24.3,5.3c13.4,4,25.3,10.7,32.6,23.2c9.1,15.5,8,31.8,1.7,47.7c-12.3,31-35.3,51.1-66.4,62.1
		c-21.3,7.6-43.2,10.8-65.8,7.7c-11.3-1.5-21.1-6.3-28.6-14.9c-2.3-2.7-3.7-6.2-5.1-9.5c-0.4-0.8,0.4-2.6,1.2-3.3
		c0.4-0.4,2.3,0.1,3,0.8c14.8,15.2,33.3,15.2,52.1,12.1c28.8-4.7,53.9-16.7,73.8-38.5c7.9-8.7,14.2-18.5,16.4-30.4
		c3.1-16.4-3.4-27-19.3-32.2c-17.1-5.6-34.6-5.3-51.9-1.9c-43.6,8.6-81.7,28.7-115.3,57.5c-6.7,5.8-12.7,12.9-17.5,20.4
		c-14.5,22.8-11.5,44.2,8.8,62.7c9.9,9.1,20.8,17.1,31.2,25.7c5.4,4.5,10.4,9.3,15.9,13.7c1.2,1,3.7,1.6,4.9,1
		c13-6.8,25.8-13.9,38.6-21c1.2-0.7,2.1-2,3.1-3.2c6.8-8.4,14.7-15.5,24.5-20.1c6.3-3,13.2-5,19.5-0.5c6.2,4.4,5.9,11.4,5.8,18.2
		c0,1.8-0.2,3.6-0.4,5.7c1.6-0.5,2.8-1.1,4.1-1.3c6.9-1.1,11,3.2,9.4,9.9c-3.2,13.3-6.7,26.4-9.8,39.7c-0.9,3.8-0.7,7.8-1,11.7
		c0.4,0.2,0.9,0.3,1.3,0.5c0.8-1.1,1.8-2,2.3-3.2c12.6-27.7,25.2-55.4,37.7-83.2c1-2.2,1.7-4.8,1.9-7.2c0.6-5.7,4.1-8.1,9.3-8.5
		c4.3-0.3,8.7-0.7,12.9-0.3c5.2,0.5,6.7,3,4.8,7.9c-4.1,10.4-5.6,20.9-3,31.8c1.1,4.6,3.2,8.9,5.4,14.8
		c10.2-19.3,22.5-35.7,27.4-55.9c0.9-3.6,0.7-8.5,5.6-9.8c6.9-1.8,14.1-3.7,20.9,0c1.2,0.6,1.8,4.1,1.3,5.9
		c-3,9.4-6.1,18.9-3.5,28.9c2,7.6,5,15,7.7,22.7c6.8-2.2,12.3-4.5,18-5.9c16.7-4.2,33.4-4.2,49.6,2.1c16.4,6.4,27.2,18,31.7,35.2
		c0,4,0,8,0,12c-3,8.8-8,16.1-16.8,19.9c-2,0.9-4.5,0.5-6.8,0.7c1.3-1.6,2.4-3.7,4-4.8c10.5-7.5,13.3-17.6,7.9-29.3
		c-3.5-7.6-9.2-13-16.6-16.7c-18-8.8-36.8-9.6-56-5.2c-3,0.7-5.8,1.9-9,2.9c0.7,2.2,1.3,3.8,1.8,5.3c1.9,7,3.1,14.2-0.4,21
		c-7.5,14.6-20.4,22-35.9,25.2c-7.8,1.6-13-3.2-12-11.2c0.8-6.3,2.5-13,5.8-18.2c5-8.1,11.7-15.1,17.6-22.5
		c-3.5-10.1-7.2-20.8-11-31.7c-0.5,0.8-1.1,1.7-1.6,2.7c-5.5,9.5-10.3,19.5-16.6,28.4c-4.9,7-6.2,13-3.3,21.2
		c4.3,12.6,1,24.2-9.4,32.9c-8.7,7.4-19.1,11.5-30.5,12.3c-4.9,0.3-10.6,1.5-13.4-4.1c-2.7-5.3,1.4-9.1,4.4-12.9
		c8-10,16.2-19.9,24.1-30c1.1-1.4,1.1-4.3,0.5-6.1c-3.1-9.4-6.6-18.7-10-28.1c-0.4-1.1-0.8-2.2-1.4-4.2c-1.3,2.9-2.1,4.9-3,6.8
		c-11.1,22.9-21.9,45.9-33.6,68.5c-2.8,5.5-7.8,10.4-12.6,14.5c-4.5,3.8-10.7,1.9-13.6-3.3c-1.2-2.1-2.2-4.6-2.4-7
		c-0.6-6.2-0.8-12.5-1.2-18.8c-0.5,1.3-1.1,2.6-1.7,4c-4.4,8.6-8.1,17.6-13.3,25.6c-6.5,10-19.1,9.7-25.7-0.2
		c-7.3-10.9-10.4-23.1-9.5-36c0.7-9.5,2.6-18.9,4-28.8c-7.4,4.3-14.8,8.6-22.1,12.8c0.3,1.2,0.3,1.7,0.5,2.1
		c11.8,31.5,0.7,66.2-27.2,85c-8.6,5.8-18.2,8.8-28,11.2c-5.3,0-10.7,0-16,0c-0.4-0.3-0.8-0.7-1.3-0.7c-12.5-1.1-18.4-9.1-20.8-20.3
		c-3.5-16.1,1.8-29.8,12.8-41.6c10.4-11,22.8-19.4,35.8-27c6.4-3.7,12.9-7.2,19.9-11.1c-1.7-1.5-2.9-2.6-4.2-3.6
		c-9.8-6.9-19.7-13.7-29.3-20.8c-21.4-15.6-42.4-31.6-49.8-59c0-4,0-8,0-12c0.3-0.4,0.7-0.8,0.8-1.2c2.9-15.3,10.7-28.3,20.7-39.8
		c35.3-40.4,81.3-63,131.7-77.8c8.7-2.6,17.8-3.5,26.8-5.2C203.7,7.9,212.3,7.9,221,7.9z M108.8,236.5c-15.2,8.7-29.2,17.7-41,29.5
		c-6.5,6.5-11,14.2-12.3,23.5c-1.6,11.2,4.3,16.5,15.3,13.9c12.6-3,22.3-10.3,29.7-20.5C110.5,269.1,113.7,253.8,108.8,236.5z
		 M161.8,245.4c0.8,4.6,1.5,9.1,2.6,13.6c0.3,1.4,1.9,3.6,2.8,3.6c1.5-0.1,3-1.5,4.2-2.8c1-1,1.8-2.4,2.3-3.8
		c5.1-12.3,10.5-24.4,15-36.9c3.2-8.9,5.6-18.1,7.9-27.2c1.1-4.6-1.4-6.6-5.6-4.3c-4,2.2-8.1,4.9-10.9,8.4
		C168.9,210.4,162.7,226.9,161.8,245.4z M316.1,249.1c13.6-2.8,21.6-17.4,16.3-28.9C324,228.1,318.2,237.1,316.1,249.1z
		 M255.5,263.7c11.1-2.9,21.1-15,20.1-23.3C269.1,248,262.7,255.5,255.5,263.7z"/>
</g>
</svg>
